<?xml version="1.0" encoding="UTF-8"?>
<svg id="Layer_1" data-name="Layer 1" xmlns="http://www.w3.org/2000/svg" viewBox="0 0 301.6 209.24">
  <defs>
    <style>
      .cls-1 {
        fill: #fff;
        stroke-width: 0px;
      }
    </style>
  </defs>
  <path class="cls-1" d="M0,77.49c1.47-6.93,5.64-12.09,10.64-16.84,5.76-5.48,11.31-11.17,16.86-16.87.95-.98,1.75-2.37,2.03-3.7C34.56,16.6,53.1.99,77.22.03c29.91-1.18,54.95,27.95,49.15,57.34-.52,2.64-.12,4.39,1.88,6.17,2.92,2.61,5.49,5.62,8.41,8.23,1.04.93,2.65,1.58,4.05,1.69,3.2.25,6.43.08,10.02.08,0-5.54.02-10.81,0-16.08-.03-6.76,1.95-12.82,6.65-17.72,6.96-7.26,15.45-9.9,25.2-7.08,9.95,2.88,16.04,9.67,17.7,19.88.76,4.7.42,9.58.56,14.38.03,1.16,0,2.31,0,3.24,12.07,1.63,23.8,3.25,35.56,4.73.8.1,2.16-.7,2.54-1.45,4.07-7.99,11.28-11.75,20.14-10.39,3.68.56,7.38,1.02,11.07,1.52,3.36.46,4.31,1.55,3.86,4.88-2.48,18.46-5.03,36.92-7.49,55.38-.34,2.54-1.18,4.36-4.47,4.4,2.25,2.01,4.17,3.74,6.17,5.53,2.1-.7,4.61-1.91,7.26-2.34,5.88-.96,11.07.83,15.37,4.96,3.11,2.99,6.17,6.05,9.17,9.15,2.13,2.2,2.13,3.59-.07,5.8-13.3,13.35-26.63,26.67-39.98,39.97-2.35,2.35-3.72,2.26-6.22-.23-10.07-10.05-20.13-20.12-30.18-30.2-.76-.76-1.37-1.67-2.83-3.46-.94,1.51-1.4,2.67-2.22,3.49-10.14,10.12-20.02,20.53-30.57,30.21-25.18,23.08-61.31,22.8-86.29-.43-2.63-2.45-5.12-3.51-8.72-3.52-17.1-.05-31.1-11.82-34.31-28.6-.48-2.49-.76-5.09-.59-7.61.21-3.05-.97-5.06-3.07-7.14-15.14-14.98-30.1-30.14-45.26-45.1-4.57-4.51-8.21-9.41-9.7-15.73v-6.48ZM168.14,141.93c-19.14-19.14-37.84-37.84-56.67-56.66-13.35,12-29.2,15.65-46.92,11.41v54.72c8.04-2.15,15.19-.74,21.63,4.21,4.8-4.83,9.43-9.35,13.87-14.06.95-1,1.64-2.68,1.66-4.06.13-10.8.07-21.59.08-32.39,0-.88-.27-1.99.15-2.6.74-1.07,1.9-2.52,2.91-2.54,1.02-.02,2.29,1.35,3.02,2.4.48.68.24,1.9.24,2.88.01,9.82,0,19.63,0,29.45,0,1.05,0,2.1,0,3.46,1.58,0,2.84-.03,4.09,0,5.69.13,11.43-.17,17.04.52,11.74,1.46,20.85,12.41,20.9,24.45.06,12.12-9.18,23.22-21.06,24.58-6.11.7-12.34.39-18.51.54-.9.02-1.81.1-2.98.16.49.53.67.76.89.95,20.67,18.07,53.77,17.94,73.85-.75,11.78-10.96,22.95-22.57,34.37-33.92.52-.52,1.12-1.28,1.12-1.94.08-7.74.05-15.47.05-23.28-7.56-1.26-13.24-5.07-17.36-11.29-.57.51-.95.82-1.3,1.16-11.04,11.03-22.08,22.07-33.1,33.11-1.6,1.6-3.39,2.73-5.35.87-2.03-1.92-.88-3.75.76-5.29,2.27-2.14,4.58-4.24,6.6-6.1ZM65.52,49.57c10.74.37,15.46,4.11,18.21,13.98.19.67,1.21,1.45,1.96,1.58,12.83,2.33,23.73-1.85,33.26-10.21.95-.83,1.66-2.43,1.72-3.7,1.08-24.08-17.41-43.99-41.59-44.78-1.25-.04-2.9.69-3.73,1.62-2.4,2.69-4.79,5.49-6.62,8.58-6.16,10.4-7.87,21.34-3.2,32.93ZM117.93,64.11c-.98.49-1.49.71-1.96.99-9.56,5.79-19.8,8.38-30.94,6.45-2-.35-2.49.72-3.21,2.1-2.93,5.63-9.39,9.07-15.63,8.44-6.71-.68-12.28-5.23-14.16-11.58-1.88-6.37.17-13.19,5.39-17.13,1.59-1.2,1.98-2.16,1.27-4.1-3.33-9.04-2.92-18.17.43-27.05,1.83-4.85,4.54-9.36,6.77-13.88-17.98,4.5-31.46,22.88-30.69,42.1.83,20.7,15.58,37.7,35.58,41.01,20.08,3.32,39.66-7.84,47.16-27.37ZM125.73,144.57c-6.4,0-12.64-.05-18.88.06-.71.01-1.5.81-2.1,1.41-4.19,4.13-8.26,8.37-12.53,12.42-1.5,1.42-1.6,2.43-.58,4.22,1.05,1.83,1.93,3.99,2.05,6.05.24,4.29-.07,8.6-.15,12.92h32.19v-37.08ZM181.88,126.99c-19.5-19.49-39.02-39-58.47-58.43-2.14,3.62-4.47,7.55-6.66,11.25,18.79,18.79,37.55,37.55,56.16,56.16,2.93-2.93,6.09-6.09,8.97-8.98ZM233.88,162.71c5.03,5.04,10.08,10.09,15,15.02,12.08-12.07,24.29-24.25,36.49-36.43-4.08-3.7-9.8-3.78-14.64-.11-2.9,2.19-3.75,2.17-6.27-.33-1.5-1.5-2.91-3.09-4.29-4.56-9.01,9.06-17.65,17.73-26.29,26.42ZM171.63,89.23c5.32-9.27,12.89-14.95,22.53-17.64v-15.56h-37.04c0,6.02-.02,11.8.03,17.58,0,.61.33,1.36.76,1.8,4.45,4.54,8.96,9.04,13.71,13.82ZM229.34,103.43c3.89,1.92,7.59,3.33,10.84,5.44,3.31,2.15,6.18,4.99,9.48,7.71,2.16-15.85,4.29-31.5,6.43-47.17-5.87-.43-10.48,2.87-11.93,8.68-.75,3.03-2.3,4.07-5.25,3.59-2.09-.34-4.21-.5-6.5-.76-1.06,7.79-2.07,15.24-3.06,22.51ZM254.92,131.79c-4.5-4.5-8.91-8.92-13.49-13.49-3.97,6.1-9.72,9.85-17.12,11.2,0,6.57.33,12.96-.11,19.29-.3,4.33,1.53,6.94,4.61,9.06,8.75-8.72,17.42-17.37,26.12-26.05ZM16.31,64.96c13.62,13.61,27.51,27.5,41.64,41.63,0-3.1-.17-6.19.05-9.25.17-2.42-.78-3.6-2.88-4.7-10.37-5.4-18.04-13.49-22.34-24.37-2.02-5.11-3.09-10.6-4.44-15.36-3.79,3.79-8.03,8.05-12.04,12.06ZM226.09,79.96c-5.96-.82-11.63-1.6-16.94-2.33-.73,3.9-.94,7.71-2.23,11.1-1.29,3.38-3.66,6.35-5.72,9.76,1.4,1.84,2.99,4.07,4.75,6.16.44.52,1.48.95,2.13.82,4.86-1,9.69-2.14,14.97-3.34.94-6.85,1.96-14.31,3.04-22.18ZM45.43,103.75c-3.88,3.9-7.49,7.55-10.79,10.86,7.53,7.53,15.31,15.32,23.14,23.15.02-.12.14-.46.14-.81.01-6.37.06-12.74-.03-19.11-.01-.86-.5-1.9-1.11-2.54-3.79-3.96-7.68-7.84-11.35-11.55ZM10.71,69.99c-5.17,5.18-5.99,13.9-1.25,19.88,3.01,3.8,6.66,7.1,9.63,10.21,3.88-3.9,7.51-7.55,10.84-10.89-6.24-6.24-12.73-12.72-19.22-19.2ZM64.99,158.29c2.02,11.25,12.3,22.05,20.96,22.15,3.21-6.32,2.15-13.71-2.68-18.75-4.68-4.88-11.91-6.28-18.27-3.4ZM201.7,77.19c-11.49.2-22.8,8.25-25.5,18.3,6.36,3.21,12.59,3.09,18.53-.94,5.84-3.96,8.47-10.8,6.97-17.36ZM200.27,107.82c-1.04-1.36-2.9-3.8-4.78-6.25-7.13,3.39-14.04,3.15-21.72.05.15,2.94-.67,6.1.56,7.61,3.8,4.67,8.37,8.71,13.23,13.57,4.23-4.98,8.33-9.82,12.71-14.98ZM67.6,75.75c5.45,0,9.96-4.46,9.97-9.87,0-5.41-4.51-9.92-9.95-9.93-5.45,0-9.9,4.44-9.9,9.91,0,5.49,4.38,9.88,9.89,9.88ZM205.66,114.2c3.73,6.08,9.03,9.25,15.94,9.02,6.48-.22,11.48-3.31,14.72-9.06-8.22-6.29-22.1-6.27-30.67.05ZM132.42,180.05c6.95-2.51,11.48-9.66,11.31-17.51-.16-7.18-5.02-14.22-11.31-16.14v33.65ZM192.65,49.3c-3.09-7.78-10.99-12.21-19.42-11.19-6.49.78-13.21,6.11-14,11.19h33.41ZM262.43,70.02c-2.36,17.29-4.69,34.4-7.04,51.63,1.89.25,3.32.44,5.03.67,2.37-17.36,4.7-34.47,7.05-51.7-1.87-.22-3.3-.39-5.04-.6ZM290.58,146.28c-12.31,12.31-24.49,24.49-36.67,36.67.82.96,1.82,2.12,2.46,2.87,12.46-12.46,24.64-24.64,36.71-36.71-.72-.81-1.68-1.89-2.51-2.83ZM167.69,101.91c.18-.79.33-1.94.72-3,.91-2.43.2-4.12-1.72-5.85-3.49-3.15-7.04-6.33-9.96-9.99-3.24-4.05-7.16-3.23-10.89-2.98,7.28,7.27,14.59,14.57,21.85,21.82ZM28.82,109.61c3.73-3.7,7.38-7.32,10.96-10.87-1.42-1.42-2.98-2.98-4.42-4.41-3.56,3.57-7.19,7.2-10.93,10.94,1.46,1.44,3.04,3,4.39,4.34Z"/>
  <path class="cls-1" d="M81.49,129.87c-2.25,0-4.51.06-6.76-.02-1.91-.06-3.26-1.1-3.33-3.04-.08-2.11,1.3-3.27,3.34-3.3,4.61-.08,9.21-.08,13.82,0,1.87.03,3.24,1.01,3.3,3.03.07,2.17-1.3,3.22-3.32,3.31-2.35.1-4.7.02-7.06.02Z"/>
  <path class="cls-1" d="M80.46,13.05c10.34.87,18.95,5.18,25.84,12.97,1.53,1.72,2.49,3.56.44,5.35-2.08,1.82-3.79.48-5.26-1.19-5.72-6.48-12.89-10.08-21.5-10.83-3.75-.33-5.26-1.4-4.85-3.61.58-3.09,2.97-2.9,5.32-2.69Z"/>
  <path class="cls-1" d="M114.91,44.04c-.86.8-1.78,2.35-2.85,2.46-1.1.12-2.75-.89-3.43-1.89-.83-1.22-1.3-3-1.16-4.46.11-1.19,1.16-2.9,2.15-3.21.98-.3,2.9.55,3.53,1.49.93,1.39,1.09,3.29,1.75,5.61Z"/>
</svg>