<?xml version="1.0" encoding="UTF-8"?>
<svg id="Layer_1" data-name="Layer 1" xmlns="http://www.w3.org/2000/svg" viewBox="0 0 42 42">
  <defs>
    <style>
      .cls-1 {
        fill: none;
        stroke: #fff;
        stroke-miterlimit: 10;
        stroke-width: 2px;
      }
    </style>
  </defs>
  <g id="ios_out">
    <path class="cls-1" d="M32,41H10c-4.97,0-9-4.03-9-9V10C1,5.03,5.03,1,10,1h22c4.97,0,9,4.03,9,9v22c0,4.97-4.03,9-9,9Z"/>
    <path class="cls-1" d="M33,30H9c-1.1,0-2-.9-2-2v-14c0-1.1.9-2,2-2h24c1.1,0,2,.9,2,2v14c0,1.1-.9,2-2,2Z"/>
    <path class="cls-1" d="M34,13l-9.62,9.6c-1.88,1.87-4.91,1.87-6.79,0l-9.6-9.6"/>
    <line class="cls-1" x1="16" y1="21" x2="8" y2="29"/>
    <line class="cls-1" x1="34" y1="29" x2="25.99" y2="21"/>
  </g>
</svg>