<?xml version="1.0" encoding="UTF-8"?>
<svg id="Layer_1" data-name="Layer 1" xmlns="http://www.w3.org/2000/svg" viewBox="0 0 42 42">
  <defs>
    <style>
      .cls-1 {
        fill: none;
        stroke: #fff;
        stroke-miterlimit: 10;
        stroke-width: 2px;
      }
    </style>
  </defs>
  <g id="ios_out">
    <path class="cls-1" d="M32,41H10c-4.97,0-9-4.03-9-9V10C1,5.03,5.03,1,10,1h22c4.97,0,9,4.03,9,9v22c0,4.97-4.03,9-9,9Z"/>
    <path class="cls-1" d="M30.56,33.01c.8,0,3.56-1.44,3.41-5.01-.03-.63-.38-1.2-.92-1.55-.62-.4-1.58-1.01-2.83-1.81-1.14-.73-2.61-.78-3.81-.13l-1.08.46c-.56.4-1.29.48-1.92.21-.99-.41-2.51-1.22-3.94-2.64s-2.23-2.95-2.64-3.94c-.27-.64-.19-1.36.21-1.92l.46-1.08c.65-1.19.6-2.66-.13-3.81-.8-1.25-1.42-2.21-1.81-2.83-.35-.54-.92-.9-1.55-.92-3.56-.15-5.01,2.61-5.01,3.41,0,.56-.76,7.24,6.78,14.78,7.54,7.54,14.22,6.78,14.78,6.78Z"/>
  </g>
</svg>